<svg xmlns="http://www.w3.org/2000/svg" width="126" height="126" fill="none"><path fill="#fff" d="m112.718 58.721-5.408-7.507A13.12 13.12 0 0 0 96.653 45.7H73.657V34.466a13.125 13.125 0 0 0-13.124-13.125H23.94a13.16 13.16 0 0 0-13.125 13.125v52.185a7.875 7.875 0 0 0 7.875 7.875h6.405a11.77 11.77 0 0 0 23.31 0h29.19a11.77 11.77 0 0 0 23.31 0h6.405a7.87 7.87 0 0 0 7.875-7.875V66.334a13.13 13.13 0 0 0-2.467-7.613M36.75 99.41a6.562 6.562 0 1 1 0-13.125 6.562 6.562 0 0 1 0 13.125m31.658-10.133h-20.37a11.849 11.849 0 0 0-22.575 0H18.69a2.625 2.625 0 0 1-2.625-2.625V34.466a7.875 7.875 0 0 1 7.875-7.875h36.593a7.875 7.875 0 0 1 7.874 7.875zM89.25 99.41a6.562 6.562 0 1 1 0-13.125 6.562 6.562 0 0 1 0 13.125m20.685-12.758a2.626 2.626 0 0 1-2.625 2.625h-6.772a11.85 11.85 0 0 0-11.288-8.244 11.85 11.85 0 0 0-11.287 8.244h-4.305V50.951h22.995a7.98 7.98 0 0 1 6.405 3.308l5.407 7.507a8.03 8.03 0 0 1 1.47 4.568z"/><path fill="#fff" d="M94.652 64.076h-10.5a2.625 2.625 0 0 1 0-5.25h10.5a2.625 2.625 0 0 1 0 5.25"/></svg>