<svg xmlns="http://www.w3.org/2000/svg" width="30" height="30" fill="none"><path fill="#fff" d="M17.013 15.304a2 2 0 1 1-1.95-2.038 2.025 2.025 0 0 1 1.95 2.038"/><path fill="#fff" d="M18.454 9.041h-6.782a2.53 2.53 0 0 0-2.53 2.53v6.934a2.53 2.53 0 0 0 2.53 2.53h6.782a2.53 2.53 0 0 0 2.53-2.53v-6.921a2.534 2.534 0 0 0-2.53-2.543m-3.392 9.654a3.378 3.378 0 0 1-.763-6.686 3.378 3.378 0 0 1 4.066 3.307 3.336 3.336 0 0 1-3.302 3.379m3.67-6.756a.62.62 0 0 1-.62-.633.632.632 0 1 1 1.266 0 .62.62 0 0 1-.697.633z"/><path fill="#fff" d="M15.063 2.5a12.5 12.5 0 1 0-.125 25 12.5 12.5 0 0 0 .124-25m7.59 15.877a4.24 4.24 0 0 1-4.262 4.264h-6.655a4.24 4.24 0 0 1-4.264-4.262v-6.657a4.24 4.24 0 0 1 4.263-4.263h6.656a4.24 4.24 0 0 1 4.263 4.262z"/></svg>