<svg xmlns="http://www.w3.org/2000/svg" width="116" height="116" fill="none"><path stroke="#000" stroke-width="4" d="M2 2h112v112H2z"/><path stroke="#fff" stroke-linecap="round" stroke-linejoin="round" stroke-width="4" d="M56.731 39.237c.38 2.445-.146 4.955-1.462 6.978s-3.316 3.392-5.558 3.807l-26.178 4.85a7.9 7.9 0 0 1-3.346-.102 8.25 8.25 0 0 1-3.056-1.491 9.1 9.1 0 0 1-2.3-2.653 9.9 9.9 0 0 1-1.192-3.41L9.367 19.772c-.381-2.445.144-4.956 1.46-6.98 1.315-2.023 3.314-3.393 5.556-3.81l26.183-4.85a7.9 7.9 0 0 1 3.345.102 8.25 8.25 0 0 1 3.056 1.491 9.1 9.1 0 0 1 2.3 2.653 9.9 9.9 0 0 1 1.192 3.41zm32.16 63.957c-1.09 2.177-2.93 3.792-5.112 4.49s-4.53.422-6.527-.767L53.948 93.04a8.8 8.8 0 0 1-2.569-2.34 9.7 9.7 0 0 1-1.551-3.234 10.2 10.2 0 0 1-.299-3.636 10 10 0 0 1 1-3.483L62.766 55.91c1.091-2.176 2.93-3.792 5.113-4.49s4.53-.422 6.527.767L97.709 66.07a8.8 8.8 0 0 1 2.569 2.34 9.7 9.7 0 0 1 1.551 3.234c.318 1.179.419 2.414.298 3.635a10 10 0 0 1-1 3.484z"/><path stroke="#fff" stroke-linecap="round" stroke-linejoin="round" stroke-width="4" d="M33.045 31.628a1.87 1.87 0 0 1-1.38-.623 2.23 2.23 0 0 1-.572-1.505c0-.565.206-1.106.572-1.505s.862-.623 1.38-.623m0 4.256c.517 0 1.014-.224 1.38-.623a2.23 2.23 0 0 0 .571-1.505 2.23 2.23 0 0 0-.572-1.505 1.87 1.87 0 0 0-1.38-.623M72.72 71.784a1.87 1.87 0 0 1-1.38-.624 2.23 2.23 0 0 1-.571-1.504c0-.565.205-1.106.571-1.505.366-.4.863-.623 1.38-.623m0 4.256c.518 0 1.014-.225 1.38-.624a2.23 2.23 0 0 0 .572-1.504 2.23 2.23 0 0 0-.572-1.505 1.87 1.87 0 0 0-1.38-.623m6.03 23.122a1.87 1.87 0 0 1-1.38-.623 2.23 2.23 0 0 1-.571-1.505c0-.564.205-1.105.571-1.504a1.87 1.87 0 0 1 1.38-.624m0 4.256c.518 0 1.014-.224 1.38-.623s.571-.94.571-1.505a2.23 2.23 0 0 0-.571-1.504 1.87 1.87 0 0 0-1.38-.624"/></svg>