<svg xmlns="http://www.w3.org/2000/svg" width="23" height="23" fill="none"><path fill="#fff" d="M11.103 5.046c1.756 0 3.41.779 4.623 1.996v.003c0-.584.393-1.026.937-1.026h.138c.857 0 1.03.808 1.03 1.063l.003 9.082c-.06.595.614.903.989.52 1.455-1.497 3.2-7.704-.907-11.298-3.83-3.354-8.969-2.8-11.702-.917-2.904 2.007-4.76 6.44-2.957 10.605 1.97 4.542 7.6 5.897 10.95 4.546 1.696-.685 2.478 1.605.715 2.354-2.657 1.134-10.062 1.018-13.521-4.971C-.936 12.957-.812 5.84 5.388 2.153 10.127-.67 16.378.112 20.148 4.047c3.939 4.118 3.711 11.822-.134 14.817-1.742 1.362-4.328.038-4.31-1.947l-.019-.647c-1.212 1.201-2.826 1.906-4.582 1.906-3.473 0-6.532-3.06-6.532-6.53 0-3.507 3.059-6.598 6.532-6.598zm4.37 6.35c-.132-2.543-2.019-4.073-4.299-4.073h-.086c-2.628 0-4.087 2.07-4.087 4.416 0 2.632 1.763 4.293 4.076 4.293 2.583 0 4.278-1.89 4.402-4.125z"/></svg>