<svg xmlns="http://www.w3.org/2000/svg" width="90" height="90" fill="none"><path fill="#fff" fill-rule="evenodd" d="M46.26 4.748A6.75 6.75 0 0 1 50.391 6.2l30.884 24.368a6.75 6.75 0 0 1 2.375 3.685l.855 3.479a6.75 6.75 0 0 1-1.255 5.8L72.045 57.735a6.75 6.75 0 0 1-5.346 2.565l-3.587-.022a6.75 6.75 0 0 1-4.13-1.45L28.093 34.462a6.75 6.75 0 0 1-2.376-3.685l-.855-3.479a6.75 6.75 0 0 1 1.255-5.796L37.328 7.29a6.75 6.75 0 0 1 5.345-2.57zm1.346 4.985a2.25 2.25 0 0 0-1.378-.486l-3.586-.022a2.25 2.25 0 0 0-1.782.855L29.655 24.287a2.25 2.25 0 0 0-.419 1.935l.855 3.478c.12.486.4.919.793 1.229L61.767 55.3a2.25 2.25 0 0 0 1.377.481l3.587.027a2.25 2.25 0 0 0 1.782-.855l11.209-14.211a2.25 2.25 0 0 0 .419-1.935l-.856-3.478a2.25 2.25 0 0 0-.791-1.229zM39.983 43.88 16.308 73.89a2.25 2.25 0 0 0 .369 3.159l3.532 2.79a2.25 2.25 0 0 0 3.164-.373L47.048 49.46l3.532 2.79-23.674 30.005a6.75 6.75 0 0 1-9.482 1.117l-3.532-2.79a6.75 6.75 0 0 1-1.117-9.477L36.45 41.094z" clip-rule="evenodd"/><path fill="#fff" fill-rule="evenodd" d="m60.192 18.27 4.185-5.301a2.25 2.25 0 0 1 3.159-.369l3.532 2.79a2.25 2.25 0 0 1 .374 3.154l-4.185 5.302 3.537 2.79 4.18-5.302a6.75 6.75 0 0 0-1.12-9.481l-3.532-2.79a6.75 6.75 0 0 0-9.478 1.12L56.66 15.48z" clip-rule="evenodd"/></svg>