<svg xmlns="http://www.w3.org/2000/svg" width="48" height="48" fill="none"><path fill="#fff" d="M27.206 24.473a3.198 3.198 0 1 1-3.119-3.258 3.24 3.24 0 0 1 3.119 3.258"/><path fill="#fff" d="M29.51 14.458H18.667a4.046 4.046 0 0 0-4.046 4.046v11.088a4.045 4.045 0 0 0 4.046 4.046h10.845a4.046 4.046 0 0 0 4.045-4.046V18.524a4.05 4.05 0 0 0-4.045-4.066m-5.423 15.438a5.402 5.402 0 1 1 5.282-5.403 5.34 5.34 0 0 1-5.282 5.403m5.87-10.804a.993.993 0 0 1-.992-1.012 1.012 1.012 0 0 1 2.023 0 .99.99 0 0 1-1.114 1.012z"/><path fill="#fff" d="M24.087 3.998a19.99 19.99 0 1 0-.2 39.979 19.99 19.99 0 0 0 .2-39.98m12.14 25.39a6.78 6.78 0 0 1-6.816 6.819H18.768a6.78 6.78 0 0 1-6.818-6.817V18.746a6.78 6.78 0 0 1 6.816-6.818h10.645a6.776 6.776 0 0 1 6.816 6.816z"/></svg>