<svg width="48" height="48" viewBox="0 0 48 48" fill="none" xmlns="http://www.w3.org/2000/svg">
<path d="M27.2056 24.4731C27.1936 25.1064 26.9937 25.7218 26.6315 26.2413C26.2693 26.7609 25.761 27.1612 25.171 27.3915C24.581 27.6218 23.9359 27.6718 23.3175 27.5351C22.6991 27.3984 22.1352 27.0811 21.6973 26.6236C21.2594 26.166 20.9671 25.5887 20.8577 24.9649C20.7482 24.3411 20.8265 23.6988 21.0825 23.1195C21.3384 22.5402 21.7607 22.0499 22.2956 21.7108C22.8305 21.3718 23.4541 21.1991 24.0873 21.2149C24.9286 21.246 25.7248 21.6036 26.3069 22.2119C26.889 22.8202 27.2114 23.6312 27.2056 24.4731Z" fill="white"/>
<path d="M29.5105 14.4583H18.6662C17.5931 14.4583 16.5641 14.8845 15.8053 15.6433C15.0466 16.402 14.6203 17.4311 14.6203 18.5041V29.5923C14.6203 30.1236 14.7249 30.6497 14.9283 31.1406C15.1316 31.6314 15.4296 32.0775 15.8053 32.4531C16.181 32.8288 16.627 33.1269 17.1179 33.3302C17.6088 33.5335 18.1349 33.6382 18.6662 33.6382H29.5105C30.0418 33.6382 30.5679 33.5335 31.0587 33.3302C31.5496 33.1269 31.9956 32.8288 32.3713 32.4531C32.747 32.0775 33.045 31.6314 33.2484 31.1406C33.4517 30.6497 33.5563 30.1236 33.5563 29.5923V18.5241C33.5584 17.9913 33.4554 17.4632 33.253 16.9703C33.0507 16.4774 32.7531 16.0292 32.3772 15.6515C32.0014 15.2738 31.5547 14.974 31.0628 14.7692C30.5708 14.5644 30.0433 14.4588 29.5105 14.4583ZM24.0873 29.8961C23.0138 29.9204 21.9574 29.6242 21.053 29.0454C20.1486 28.4666 19.4371 27.6315 19.0094 26.6466C18.5817 25.6616 18.4571 24.5716 18.6516 23.5156C18.8461 22.4596 19.3509 21.4855 20.1014 20.7176C20.852 19.9497 21.8143 19.4229 22.8656 19.2043C23.9169 18.9857 25.0095 19.0854 26.0039 19.4905C26.9983 19.8956 27.8495 20.5879 28.4488 21.4789C29.0481 22.3698 29.3683 23.4192 29.3685 24.493C29.3772 25.1947 29.2475 25.8913 28.9867 26.5428C28.7258 27.1943 28.3391 27.788 27.8485 28.2899C27.358 28.7917 26.7733 29.1919 26.1279 29.4676C25.4825 29.7432 24.7891 29.8888 24.0873 29.8961ZM29.9562 19.0918C29.8243 19.0918 29.6937 19.0655 29.5721 19.0145C29.4505 18.9634 29.3403 18.8886 29.248 18.7944C29.1557 18.7002 29.083 18.5885 29.0344 18.4659C28.9858 18.3433 28.9621 18.2122 28.9647 18.0803C28.9647 17.8121 29.0713 17.5548 29.261 17.3651C29.4507 17.1754 29.708 17.0689 29.9762 17.0689C30.2445 17.0689 30.5017 17.1754 30.6914 17.3651C30.8811 17.5548 30.9877 17.8121 30.9877 18.0803C30.9917 18.2231 30.9647 18.3651 30.9087 18.4965C30.8527 18.628 30.769 18.7457 30.6633 18.8418C30.5575 18.9378 30.4323 19.0099 30.2961 19.0531C30.1599 19.0962 30.016 19.1094 29.8743 19.0918H29.9562Z" fill="white"/>
<path d="M24.0874 3.99781C18.7858 3.9713 13.6909 6.05191 9.92339 9.78192C6.15589 13.5119 4.02444 18.5858 3.99793 23.8873C3.97142 29.1889 6.05203 34.2838 9.78204 38.0513C13.5121 41.8188 18.5859 43.9503 23.8875 43.9768C26.5125 43.9899 29.1145 43.4858 31.5447 42.4934C33.975 41.501 36.186 40.0396 38.0514 38.1927C39.9169 36.3457 41.4003 34.1495 42.417 31.7293C43.4337 29.3091 43.9638 26.7123 43.9769 24.0872C43.99 21.4622 43.486 18.8602 42.4935 16.43C41.5011 13.9997 40.0397 11.7887 38.1928 9.92327C36.3459 8.05779 34.1496 6.57436 31.7294 5.55767C29.3092 4.54097 26.7124 4.01093 24.0874 3.99781ZM36.227 29.3884C36.2325 30.2852 36.06 31.1742 35.7195 32.0039C35.3789 32.8335 34.8771 33.5873 34.243 34.2215C33.609 34.8557 32.8553 35.3578 32.0258 35.6986C31.1963 36.0394 30.3074 36.2122 29.4106 36.2069H18.7682C17.8714 36.2124 16.9824 36.0399 16.1528 35.6994C15.3231 35.3588 14.5693 34.857 13.9351 34.2229C13.3009 33.5889 12.7988 32.8352 12.458 32.0057C12.1172 31.1762 11.9444 30.2872 11.9497 29.3904V18.746C11.9442 17.8493 12.1167 16.9603 12.4572 16.1306C12.7978 15.301 13.2996 14.5472 13.9337 13.913C14.5677 13.2788 15.3214 12.7767 16.1509 12.4359C16.9804 12.0951 17.8694 11.9223 18.7662 11.9276H29.4106C30.3072 11.9223 31.1959 12.095 32.0253 12.4357C32.8547 12.7764 33.6083 13.2783 34.2423 13.9123C34.8763 14.5463 35.3782 15.2999 35.7189 16.1293C36.0596 16.9587 36.2323 17.8474 36.227 18.744V29.3884Z" fill="white"/>
</svg>
