<?xml version="1.0" encoding="UTF-8"?>
<svg xmlns="http://www.w3.org/2000/svg" xmlns:xlink="http://www.w3.org/1999/xlink" width="25px" height="25px" viewBox="0 0 25 25" version="1.1">
<g id="surface1">
<path style=" stroke:none;fill-rule:nonzero;fill:rgb(100%,100%,100%);fill-opacity:1;" d="M 14.167969 12.746094 C 14.15625 13.421875 13.738281 14.019531 13.109375 14.265625 C 12.480469 14.511719 11.769531 14.355469 11.300781 13.867188 C 10.835938 13.378906 10.707031 12.660156 10.980469 12.042969 C 11.253906 11.425781 11.871094 11.03125 12.546875 11.050781 C 13.457031 11.082031 14.175781 11.835938 14.167969 12.746094 "/>
<path style=" stroke:none;fill-rule:nonzero;fill:rgb(100%,100%,100%);fill-opacity:1;" d="M 15.371094 7.53125 L 9.722656 7.53125 C 8.558594 7.53125 7.613281 8.472656 7.613281 9.636719 L 7.613281 15.414062 C 7.613281 16.578125 8.558594 17.519531 9.722656 17.519531 L 15.371094 17.519531 C 16.535156 17.519531 17.476562 16.574219 17.476562 15.414062 L 17.476562 9.648438 C 17.480469 9.085938 17.257812 8.550781 16.863281 8.152344 C 16.46875 7.753906 15.929688 7.53125 15.371094 7.53125 M 12.546875 15.570312 C 11.402344 15.597656 10.359375 14.925781 9.902344 13.878906 C 9.449219 12.828125 9.671875 11.609375 10.472656 10.792969 C 11.269531 9.972656 12.484375 9.722656 13.546875 10.152344 C 14.605469 10.582031 15.296875 11.613281 15.296875 12.757812 C 15.304688 13.496094 15.019531 14.207031 14.503906 14.734375 C 13.988281 15.261719 13.285156 15.5625 12.546875 15.570312 M 15.605469 9.945312 C 15.464844 9.945312 15.332031 9.886719 15.234375 9.789062 C 15.136719 9.691406 15.085938 9.554688 15.085938 9.417969 C 15.097656 9.132812 15.328125 8.90625 15.613281 8.90625 C 15.898438 8.90625 16.132812 9.132812 16.140625 9.417969 C 16.144531 9.566406 16.082031 9.710938 15.972656 9.8125 C 15.859375 9.914062 15.710938 9.960938 15.558594 9.945312 Z M 15.605469 9.945312 "/>
<path style=" stroke:none;fill-rule:nonzero;fill:rgb(100%,100%,100%);fill-opacity:1;" d="M 12.546875 2.082031 C 8.8125 2.046875 5.347656 4.007812 3.460938 7.226562 C 1.570312 10.445312 1.550781 14.429688 3.40625 17.667969 C 5.261719 20.90625 8.710938 22.90625 12.441406 22.90625 C 18.191406 22.933594 22.875 18.296875 22.90625 12.546875 C 22.933594 6.796875 18.296875 2.109375 12.546875 2.082031 M 18.867188 15.304688 C 18.875 16.25 18.5 17.15625 17.835938 17.824219 C 17.167969 18.488281 16.261719 18.863281 15.316406 18.855469 L 9.773438 18.855469 C 8.832031 18.863281 7.925781 18.492188 7.257812 17.824219 C 6.589844 17.15625 6.21875 16.25 6.222656 15.308594 L 6.222656 9.761719 C 6.21875 8.820312 6.589844 7.914062 7.257812 7.246094 C 7.925781 6.578125 8.832031 6.207031 9.773438 6.210938 L 15.316406 6.210938 C 16.261719 6.207031 17.167969 6.578125 17.835938 7.246094 C 18.5 7.914062 18.875 8.820312 18.867188 9.761719 Z M 18.867188 15.304688 "/>
</g>
</svg>
