<svg xmlns="http://www.w3.org/2000/svg" width="105" height="105" fill="none"><path stroke="#fff" stroke-linecap="round" stroke-linejoin="round" stroke-width="4" d="M10.24 43.019a2.31 2.31 0 0 1-.618-2.386c.133-.416.381-.784.715-1.062a2.25 2.25 0 0 1 1.17-.504l27.168-3.256c.385-.046.751-.19 1.065-.42s.564-.537.727-.893l11.457-25.11a2.3 2.3 0 0 1 .834-.968 2.25 2.25 0 0 1 2.44 0c.364.235.653.571.834.968l11.458 25.11c.162.355.41.662.724.892.313.23.679.374 1.063.42l27.168 3.257c.43.052.835.227 1.169.504.334.278.582.646.716 1.062a2.31 2.31 0 0 1-.618 2.386L77.63 61.794a2.312 2.312 0 0 0-.679 2.122l5.326 27.123a2.3 2.3 0 0 1-.111 1.28c-.158.408-.428.76-.778 1.018a2.25 2.25 0 0 1-2.437.144L55.082 79.975a2.24 2.24 0 0 0-2.208 0L29 93.477a2.24 2.24 0 0 1-2.434-.144 2.3 2.3 0 0 1-.778-1.015 2.3 2.3 0 0 1-.114-1.28l5.33-27.122a2.31 2.31 0 0 0-.678-2.122z"/></svg>