<svg xmlns="http://www.w3.org/2000/svg" width="22" height="21" fill="none"><path fill="#fff" d="M22 10.5c0 2.785-1.159 5.456-3.222 7.425S13.918 21 11 21s-5.715-1.106-7.778-3.075S0 13.285 0 10.5s1.159-5.455 3.222-7.425S8.082 0 11 0s5.715 1.106 7.778 3.075S22 7.715 22 10.5M11.395 7.752a543 543 0 0 0-6.416 2.638q-.78.295-.818.58c-.041.319.378.445.949.617l.24.072c.561.175 1.317.378 1.71.386q.536.013 1.193-.42 4.495-2.895 4.639-2.927c.069-.016.165-.034.228.02.064.056.058.158.051.186-.041.17-1.687 1.629-2.538 2.385-.265.236-.454.403-.492.44q-.127.126-.259.245c-.522.48-.913.84.02 1.428.45.283.81.516 1.17.75.39.254.78.507 1.287.825q.193.12.37.245c.456.31.867.588 1.372.544.294-.027.598-.289.752-1.076.364-1.86 1.08-5.888 1.246-7.549a1.8 1.8 0 0 0-.018-.413.44.44 0 0 0-.157-.285.75.75 0 0 0-.426-.122c-.413.007-1.05.218-4.103 1.43"/></svg>