<?xml version="1.0" encoding="UTF-8"?>
<svg xmlns="http://www.w3.org/2000/svg" xmlns:xlink="http://www.w3.org/1999/xlink" width="25px" height="25px" viewBox="0 0 25 25" version="1.1">
<g id="surface1">
<path style=" stroke:none;fill-rule:nonzero;fill:rgb(100%,100%,100%);fill-opacity:1;" d="M 25 12.5 C 25 15.816406 23.683594 18.996094 21.339844 21.339844 C 18.996094 23.683594 15.816406 25 12.5 25 C 9.183594 25 6.003906 23.683594 3.660156 21.339844 C 1.316406 18.996094 0 15.816406 0 12.5 C 0 9.183594 1.316406 6.007812 3.660156 3.660156 C 6.003906 1.316406 9.183594 0 12.5 0 C 15.816406 0 18.996094 1.316406 21.339844 3.660156 C 23.683594 6.003906 25 9.183594 25 12.5 M 12.949219 9.230469 C 10.511719 10.257812 8.082031 11.304688 5.65625 12.367188 C 5.066406 12.601562 4.757812 12.832031 4.726562 13.058594 C 4.683594 13.4375 5.15625 13.589844 5.808594 13.792969 L 6.078125 13.878906 C 6.71875 14.089844 7.574219 14.328125 8.023438 14.339844 C 8.429688 14.347656 8.878906 14.183594 9.378906 13.839844 C 12.785156 11.542969 14.539062 10.378906 14.648438 10.355469 C 14.726562 10.335938 14.835938 10.3125 14.910156 10.378906 C 14.980469 10.445312 14.976562 10.566406 14.96875 10.601562 C 14.921875 10.800781 13.050781 12.539062 12.082031 13.4375 C 11.78125 13.71875 11.566406 13.917969 11.523438 13.964844 C 11.425781 14.0625 11.328125 14.160156 11.230469 14.253906 C 10.636719 14.828125 10.191406 15.253906 11.253906 15.953125 C 11.761719 16.292969 12.171875 16.570312 12.582031 16.847656 C 13.023438 17.148438 13.46875 17.453125 14.042969 17.828125 C 14.191406 17.925781 14.332031 18.023438 14.464844 18.121094 C 14.984375 18.492188 15.449219 18.820312 16.023438 18.769531 C 16.359375 18.738281 16.703125 18.425781 16.878906 17.488281 C 17.292969 15.273438 18.105469 10.480469 18.292969 8.5 C 18.304688 8.335938 18.296875 8.171875 18.273438 8.007812 C 18.257812 7.875 18.195312 7.753906 18.09375 7.671875 C 17.953125 7.570312 17.78125 7.519531 17.613281 7.523438 C 17.140625 7.535156 16.417969 7.785156 12.949219 9.226562 "/>
</g>
</svg>
