<?xml version="1.0" encoding="UTF-8"?>
<svg xmlns="http://www.w3.org/2000/svg" xmlns:xlink="http://www.w3.org/1999/xlink" width="25px" height="25px" viewBox="0 0 25 25" version="1.1">
<g id="surface1">
<path style=" stroke:none;fill-rule:nonzero;fill:rgb(100%,100%,100%);fill-opacity:1;" d="M 12.5 0.5 C 5.871094 0.5 0.5 5.871094 0.5 12.5 C 0.5 19.128906 5.871094 24.5 12.5 24.5 C 19.128906 24.5 24.5 19.128906 24.5 12.5 C 24.5 5.871094 19.128906 0.5 12.5 0.5 M 17.113281 14.039062 C 17.113281 14.039062 18.175781 15.085938 18.4375 15.574219 C 18.445312 15.582031 18.449219 15.589844 18.449219 15.597656 C 18.558594 15.773438 18.582031 15.914062 18.53125 16.019531 C 18.441406 16.191406 18.140625 16.277344 18.039062 16.285156 L 16.164062 16.285156 C 16.035156 16.285156 15.761719 16.25 15.433594 16.023438 C 15.179688 15.84375 14.929688 15.554688 14.683594 15.269531 C 14.320312 14.847656 14.007812 14.484375 13.6875 14.484375 C 13.648438 14.484375 13.609375 14.488281 13.570312 14.5 C 13.328125 14.578125 13.023438 14.921875 13.023438 15.835938 C 13.023438 16.117188 12.796875 16.28125 12.640625 16.28125 L 11.78125 16.28125 C 11.488281 16.28125 9.964844 16.179688 8.613281 14.757812 C 6.960938 13.011719 5.472656 9.515625 5.460938 9.484375 C 5.367188 9.257812 5.5625 9.136719 5.773438 9.136719 L 7.664062 9.136719 C 7.917969 9.136719 8 9.289062 8.058594 9.425781 C 8.125 9.585938 8.375 10.214844 8.78125 10.925781 C 9.4375 12.082031 9.84375 12.550781 10.164062 12.550781 C 10.226562 12.550781 10.285156 12.535156 10.339844 12.507812 C 10.761719 12.273438 10.683594 10.765625 10.664062 10.453125 C 10.664062 10.394531 10.664062 9.78125 10.449219 9.484375 C 10.292969 9.269531 10.027344 9.191406 9.867188 9.160156 C 9.933594 9.070312 10.019531 9 10.117188 8.949219 C 10.40625 8.804688 10.929688 8.78125 11.449219 8.78125 L 11.738281 8.78125 C 12.300781 8.789062 12.445312 8.824219 12.648438 8.878906 C 13.0625 8.976562 13.070312 9.242188 13.035156 10.152344 C 13.023438 10.410156 13.011719 10.703125 13.011719 11.050781 L 13.007812 11.289062 C 12.996094 11.753906 12.980469 12.28125 13.308594 12.496094 C 13.5625 12.535156 13.90625 12.535156 14.835938 10.945312 C 15.117188 10.433594 15.367188 9.902344 15.578125 9.355469 C 15.597656 9.320312 15.652344 9.222656 15.714844 9.183594 L 18.097656 9.144531 C 18.339844 9.144531 18.507812 9.183594 18.535156 9.277344 C 18.59375 9.425781 18.527344 9.878906 17.511719 11.253906 L 17.058594 11.855469 C 16.136719 13.0625 16.136719 13.121094 17.113281 14.039062 "/>
</g>
</svg>
