<svg xmlns="http://www.w3.org/2000/svg" width="25" height="25" fill="none"><path fill="#fff" d="M12.5.5C5.873.5.5 5.873.5 12.5c0 6.628 5.373 12 12 12 6.628 0 12-5.372 12-12 0-6.627-5.372-12-12-12m4.615 13.539s1.061 1.047 1.323 1.534q.011.016.013.024.159.267.079.422c-.088.172-.388.257-.49.265h-1.875c-.13 0-.402-.034-.732-.261-.254-.178-.504-.47-.748-.753-.364-.422-.679-.787-.996-.787q-.06 0-.119.018c-.24.078-.547.42-.547 1.333 0 .285-.226.448-.384.448h-.859c-.292 0-1.816-.102-3.166-1.526-1.653-1.744-3.14-5.241-3.153-5.273-.094-.227.1-.348.311-.348h1.894c.253 0 .335.154.393.29.067.159.315.79.721 1.5.659 1.157 1.063 1.627 1.386 1.627q.092-.001.174-.044c.422-.235.344-1.742.325-2.054 0-.059-.001-.674-.217-.969-.155-.214-.42-.295-.58-.325a.7.7 0 0 1 .25-.211c.29-.145.812-.166 1.33-.166h.29c.562.007.707.043.91.095.413.098.422.364.386 1.276-.011.258-.023.551-.023.896l-.003.24c-.013.464-.028.99.3 1.206a.25.25 0 0 0 .142.041c.114 0 .456 0 1.384-1.59q.427-.771.744-1.593c.018-.033.073-.133.138-.171a.4.4 0 0 1 .155-.037h2.226c.243 0 .41.036.44.13.056.149-.01.603-1.026 1.979l-.453.599c-.922 1.207-.922 1.269.057 2.185"/></svg>