<svg xmlns="http://www.w3.org/2000/svg" width="22" height="23" fill="none"><path fill="#fff" d="M11.002 0c1.692 0 3.36.393 4.877 1.147a11 11 0 0 1 3.865 3.2 11.095 11.095 0 0 1-.524 14.04 11 11 0 0 1-4.093 2.902 10.96 10.96 0 0 1-9.728-.73L.906 22.06a.684.684 0 0 1-.885-.496.7.7 0 0 1 .016-.377l1.498-4.51a11.09 11.09 0 0 1-.091-11.102 11 11 0 0 1 4.03-4.081A10.96 10.96 0 0 1 11.003 0M7.17 5.53a.96.96 0 0 0-.723.367c-.248.292-.946 1.001-.946 2.44 0 1.442.97 2.837 1.105 3.033.135.191 1.909 3.15 4.624 4.42q.757.352 1.54.616c.65.22 1.24.192 1.708.117.521-.083 1.6-.708 1.827-1.395.225-.68.225-1.267.156-1.39-.068-.122-.248-.197-.52-.346-.27-.145-1.602-.853-1.85-.948-.247-.101-.428-.147-.608.144-.182.295-.698.955-.857 1.15-.155.192-.316.22-.584.073-.273-.145-1.143-.456-2.178-1.456-.805-.775-1.348-1.737-1.505-2.029-.16-.294-.018-.45.117-.598.124-.13.272-.34.407-.512.134-.169.182-.29.272-.488.088-.194.043-.367-.024-.512-.068-.145-.61-1.591-.835-2.178-.22-.57-.444-.49-.61-.501-.156-.007-.336-.007-.516-.007"/></svg>